<?xml version="1.0" encoding="utf-8"?>
<!-- Generator: Adobe Illustrator 24.0.2, SVG Export Plug-In . SVG Version: 6.00 Build 0)  -->
<svg version="1.1" xmlns="http://www.w3.org/2000/svg" xmlns:xlink="http://www.w3.org/1999/xlink" x="0px" y="0px"
	 viewBox="0 0 218.388 53.767" enable-background="new 0 0 218.388 53.767" xml:space="preserve">
<g id="Layer_2">
</g>
<g id="Layer_1">
	<g>
		<g>
			<g>
				<g>
					<g>
						<path d="M89.073,19.354C97.035,7.376,101.23,1.23,101.659,0.914c0.631-0.474,1.218-0.711,1.759-0.711h0.778
							c1.556,0,2.616,1.105,3.18,3.316c0,1.037-1.522,3.632-4.567,7.781L92.625,26.526v20.436c-0.293,2.503-1.354,3.755-3.181,3.755
							h-0.541c-1.624,0-2.729-0.97-3.315-2.909V26.628c0-0.112-1.737-2.752-5.211-7.917L71.141,4.805l-0.203-1.184
							c0.519-2.278,1.59-3.418,3.214-3.418h0.541c1.557,0,2.741,0.993,3.553,2.978L89.073,19.354z"/>
						<path d="M135.531,46.996c-3.18,2.481-6.688,3.722-10.521,3.722h-0.881c-5.594,0-10.443-2.729-14.549-8.188
							c-1.894-2.955-2.842-6.563-2.842-10.827V17.797c0.271-2.571,1.5-3.856,3.688-3.856c2.188,0.563,3.283,1.624,3.283,3.181
							v13.567c0,5.413,1.499,9.022,4.5,10.827c1.939,1.488,4.082,2.232,6.428,2.232c4.488,0,7.884-2.322,10.184-6.97
							c0.475-1.511,0.711-3.033,0.711-4.567V17.392c0.451-2.301,1.67-3.451,3.654-3.451c2.211,0.496,3.316,1.636,3.316,3.417v30.181
							c0,1.691-1.105,2.751-3.316,3.18h-0.338c-2.211-0.405-3.316-1.544-3.316-3.417V46.996z"/>
						<path fill="#5CB46C" d="M174.575,0h0.405c1.805,0,2.91,1.117,3.316,3.35v31.331c0,5.752-2.685,10.365-8.053,13.838
							c-2.549,1.467-5.166,2.199-7.85,2.199h-0.643c-5.324,0-9.768-2.56-13.331-7.68c-1.646-2.729-2.47-5.594-2.47-8.595
							c0.496-2.233,1.567-3.35,3.215-3.35h0.507c2.301,0,3.451,1.658,3.451,4.975c0.112,1.579,1.116,3.394,3.011,5.447
							c1.828,1.443,3.824,2.165,5.989,2.165c4.285,0,7.218-2.244,8.797-6.733c0.226-0.789,0.339-1.59,0.339-2.402V3.215
							C171.665,1.072,172.769,0,174.575,0z"/>
						<path fill="#5CB46C" d="M211.451,46.861c-2.752,2.571-6.383,3.856-10.895,3.856h-0.98c-6.227,0-11.414-3.112-15.564-9.338
							c-1.512-3.023-2.267-6.057-2.267-9.102c0-6.812,3.338-12.214,10.015-16.207c2.842-1.33,5.617-1.996,8.324-1.996
							c6.924,0,12.404,3.384,16.443,10.15c1.24,2.774,1.86,5.628,1.86,8.56v14.65c0,1.805-1.105,2.897-3.316,3.281h-0.237
							c-1.534,0-2.673-0.902-3.417-2.706V47.64L211.451,46.861z M188.715,32.144v0.372c0,4.624,2.323,8.098,6.971,10.421
							c1.442,0.541,2.74,0.812,3.891,0.812h0.98c3.835,0,7.004-1.929,9.508-5.785c0.902-1.805,1.354-3.53,1.354-5.177v-0.508
							c0-4.443-2.199-7.85-6.598-10.218c-1.512-0.677-3.091-1.015-4.736-1.015h-0.136c-4.669,0-8.189,2.435-10.557,7.308
							C188.94,29.843,188.715,31.105,188.715,32.144z"/>
					</g>
				</g>
			</g>
			<polygon fill="#5CB46C" points="197.181,27.418 205.423,32.177 197.181,36.936 			"/>
		</g>
		<g>
			
				<linearGradient id="SVGID_1_" gradientUnits="userSpaceOnUse" x1="-195.7203" y1="447.1595" x2="-194.7204" y2="447.1595" gradientTransform="matrix(23.7449 -32.6194 -32.6194 -23.7449 19236.2949 4267.6436)">
				<stop  offset="0" style="stop-color:#F27021"/>
				<stop  offset="0.0559" style="stop-color:#F37A1E"/>
				<stop  offset="0.3685" style="stop-color:#F8AD11"/>
				<stop  offset="0.6413" style="stop-color:#FCD208"/>
				<stop  offset="0.861" style="stop-color:#FEE902"/>
				<stop  offset="1" style="stop-color:#FFF100"/>
			</linearGradient>
			<path fill="url(#SVGID_1_)" d="M12.023,17.668c5.319-8.26,14.28-12.325,21.727-10.485c-0.95-1.204-2.087-2.258-3.415-3.113
				C22.372-1.057,10.743,2.822,4.36,12.734c-6.382,9.912-5.101,22.104,2.862,27.232c1.328,0.854,2.759,1.453,4.248,1.821
				C6.713,35.769,6.705,25.928,12.023,17.668z"/>
			
				<linearGradient id="SVGID_2_" gradientUnits="userSpaceOnUse" x1="-190.1505" y1="443.034" x2="-189.1502" y2="443.034" gradientTransform="matrix(39.871 9.8746 9.8746 -39.871 3208.1638 19569.6133)">
				<stop  offset="0" style="stop-color:#F27021"/>
				<stop  offset="0.3627" style="stop-color:#E61E27"/>
				<stop  offset="1" style="stop-color:#922C5E"/>
			</linearGradient>
			<path fill="url(#SVGID_2_)" d="M42.689,28.37c-0.018-1.579-0.307-3.103-0.82-4.549c-2.398,7.289-10.604,12.719-20.428,12.836
				c-9.822,0.117-18.155-5.119-20.726-12.348c-0.479,1.458-0.732,2.987-0.715,4.565C0.114,38.347,9.762,45.91,21.55,45.771
				C33.339,45.63,42.803,37.841,42.689,28.37z"/>
			
				<linearGradient id="SVGID_3_" gradientUnits="userSpaceOnUse" x1="-196.0407" y1="446.9001" x2="-195.0411" y2="446.9001" gradientTransform="matrix(23.0249 -30.2201 -30.2201 -23.0249 18051.5605 4416.9043)">
				<stop  offset="0" style="stop-color:#CCDB30"/>
				<stop  offset="0.5098" style="stop-color:#00BDE8"/>
				<stop  offset="1" style="stop-color:#2E3191"/>
			</linearGradient>
			<path fill="url(#SVGID_3_)" d="M47.609,36.903c-4.498,8.734-13.025,13.644-20.616,12.529c1.064,1.107,2.297,2.047,3.7,2.77
				c8.42,4.336,19.621-0.645,25.02-11.127c5.396-10.48,2.945-22.493-5.475-26.829c-1.404-0.723-2.885-1.181-4.402-1.403
				C51.15,18.376,52.107,28.168,47.609,36.903z"/>
			
				<linearGradient id="SVGID_4_" gradientUnits="userSpaceOnUse" x1="-192.7523" y1="443.1993" x2="-191.7525" y2="443.1993" gradientTransform="matrix(37.416 -5.9963 -5.9963 -37.416 9886.2715 15451.2803)">
				<stop  offset="0" style="stop-color:#F28CB9"/>
				<stop  offset="0.0129" style="stop-color:#EF89B8"/>
				<stop  offset="0.2229" style="stop-color:#BA54A1"/>
				<stop  offset="0.3807" style="stop-color:#993393"/>
				<stop  offset="0.4673" style="stop-color:#8D278E"/>
				<stop  offset="0.5944" style="stop-color:#7B298F"/>
				<stop  offset="0.8477" style="stop-color:#4D2E90"/>
				<stop  offset="1" style="stop-color:#2E3191"/>
			</linearGradient>
			<path fill="url(#SVGID_4_)" d="M16.053,29.206c0.171,1.569,0.605,3.059,1.258,4.449c1.685-7.485,9.328-13.682,19.096-14.746
				c9.766-1.062,18.562,3.346,21.818,10.292c0.338-1.497,0.441-3.044,0.271-4.612C57.471,15.173,47.139,8.575,35.42,9.85
				C23.698,11.125,15.028,19.791,16.053,29.206z"/>
		</g>
	</g>
	<g>
	</g>
	<g>
	</g>
	<g>
	</g>
	<g>
	</g>
	<g>
	</g>
	<g>
	</g>
	<g>
	</g>
	<g>
	</g>
	<g>
	</g>
	<g>
	</g>
	<g>
	</g>
	<g>
	</g>
	<g>
	</g>
	<g>
	</g>
	<g>
	</g>
</g>
</svg>
